M48
; DRILL file {KiCad (6.0.1)} date Mon Jul  4 12:18:31 2022
; FORMAT={-:-/ absolute / inch / decimal}
; #@! TF.CreationDate,2022-07-04T12:18:31-07:00
; #@! TF.GenerationSoftware,Kicad,Pcbnew,(6.0.1)
; #@! TF.FileFunction,NonPlated,1,4,NPTH
FMAT,2
INCH
; #@! TA.AperFunction,NonPlated,NPTH,ComponentDrill
T1C0.0315
; #@! TA.AperFunction,NonPlated,NPTH,ComponentDrill
T2C0.0591
; #@! TA.AperFunction,NonPlated,NPTH,ComponentDrill
T3C0.0689
; #@! TA.AperFunction,NonPlated,NPTH,ComponentDrill
T4C0.0748
; #@! TA.AperFunction,NonPlated,NPTH,ComponentDrill
T5C0.0787
; #@! TA.AperFunction,NonPlated,NPTH,ComponentDrill
T6C0.0984
; #@! TA.AperFunction,NonPlated,NPTH,ComponentDrill
T7C0.1575
; #@! TA.AperFunction,NonPlated,NPTH,ComponentDrill
T8C0.1988
%
G90
G05
T1
X8.705Y-2.908
X8.705Y-3.1836
T2
X7.4543Y-2.7944
X8.6915Y-3.432
T3
X3.3839Y-4.0479
X3.3839Y-4.7959
X3.3839Y-5.5439
X3.3839Y-6.292
X3.3839Y-7.04
X4.132Y-4.7963
X4.132Y-5.5443
X4.132Y-6.2924
X4.132Y-7.0404
X4.1339Y-4.0489
X4.88Y-3.8987
X4.88Y-4.6467
X4.88Y-5.3947
X4.88Y-6.1428
X4.88Y-6.8908
X5.628Y-3.7491
X5.628Y-4.4971
X5.628Y-5.2451
X5.628Y-5.9931
X5.628Y-6.7412
X6.3761Y-3.5994
X6.3761Y-4.3475
X6.3761Y-5.0955
X6.3761Y-5.8435
X6.3761Y-6.5916
X7.1239Y-3.7479
X7.1239Y-4.4959
X7.1239Y-5.2439
X7.1239Y-5.992
X7.2013Y-6.9645
X7.8739Y-3.8379
X7.8739Y-4.5859
X7.8739Y-5.3339
X7.8739Y-6.082
X7.8807Y-7.5264
X8.325Y-8.282
X8.4114Y-6.9914
X8.9586Y-7.6886
T4
X3.3996Y-4.048
X3.3996Y-4.796
X3.3996Y-5.5441
X3.3996Y-6.2921
X3.3996Y-7.0401
X4.1476Y-4.7964
X4.1476Y-5.5444
X4.1476Y-6.2925
X4.1476Y-7.0405
X4.1496Y-4.0491
X4.8957Y-3.8988
X4.8957Y-4.6468
X4.8957Y-5.3948
X4.8957Y-6.1429
X4.8957Y-6.8909
X5.6437Y-3.7492
X5.6437Y-4.4972
X5.6437Y-5.2452
X5.6437Y-5.9933
X5.6437Y-6.7413
X6.3917Y-3.5996
X6.3917Y-4.3476
X6.3917Y-5.0956
X6.3917Y-5.8437
X6.3917Y-6.5917
X7.1396Y-3.748
X7.1396Y-4.496
X7.1396Y-5.2441
X7.1396Y-5.9921
X7.2154Y-6.9712
X7.8896Y-3.838
X7.8896Y-4.586
X7.8896Y-5.3341
X7.8896Y-6.0821
X7.8917Y-7.5376
X8.3315Y-8.2962
X8.4224Y-7.0026
X8.9663Y-7.7022
T5
X6.164Y-2.5197
X6.9137Y-2.46
T6
X2.9689Y-4.0489
X2.9689Y-4.7969
X2.9689Y-5.5449
X2.9689Y-6.293
X2.9689Y-7.041
X3.3969Y-4.0489
X3.3969Y-4.7969
X3.3969Y-5.5449
X3.3969Y-6.293
X3.3969Y-7.041
X3.717Y-4.7973
X3.717Y-5.5453
X3.717Y-6.2934
X3.717Y-7.0414
X3.7189Y-4.0499
X4.145Y-4.7973
X4.145Y-5.5453
X4.145Y-6.2934
X4.145Y-7.0414
X4.1469Y-4.0499
X4.465Y-3.8997
X4.465Y-4.6477
X4.465Y-5.3957
X4.465Y-6.1438
X4.465Y-6.8918
X4.893Y-3.8997
X4.893Y-4.6477
X4.893Y-5.3957
X4.893Y-6.1438
X4.893Y-6.8918
X5.213Y-3.7501
X5.213Y-4.4981
X5.213Y-5.2461
X5.213Y-5.9941
X5.213Y-6.7422
X5.641Y-3.7501
X5.641Y-4.4981
X5.641Y-5.2461
X5.641Y-5.9941
X5.641Y-6.7422
X5.9611Y-3.6004
X5.9611Y-4.3485
X5.9611Y-5.0965
X5.9611Y-5.8445
X5.9611Y-6.5926
X6.3891Y-3.6004
X6.3891Y-4.3485
X6.3891Y-5.0965
X6.3891Y-5.8445
X6.3891Y-6.5926
X6.7089Y-3.7489
X6.7089Y-4.4969
X6.7089Y-5.2449
X6.7089Y-5.993
X6.8247Y-6.79
X7.1369Y-3.7489
X7.1369Y-4.4969
X7.1369Y-5.2449
X7.1369Y-5.993
X7.2126Y-6.9709
X7.4589Y-3.8389
X7.4589Y-4.5869
X7.4589Y-5.3349
X7.4589Y-6.083
X7.5866Y-7.2337
X7.8869Y-3.8389
X7.8869Y-4.5869
X7.8869Y-5.3349
X7.8869Y-6.083
X7.8892Y-7.5363
X8.1173Y-6.6987
X8.1487Y-7.9063
X8.3296Y-8.2942
X8.336Y-4.0477
X8.336Y-6.143
X8.4199Y-7.0013
X8.7502Y-7.3297
X8.9642Y-7.7003
X9.57Y-4.0477
X9.57Y-6.152
T7
X3.1839Y-4.0479
X3.1839Y-4.7959
X3.1839Y-5.5439
X3.1839Y-6.292
X3.1839Y-7.04
X3.932Y-4.7963
X3.932Y-5.5443
X3.932Y-6.2924
X3.932Y-7.0404
X3.9339Y-4.0489
X4.68Y-3.8987
X4.68Y-4.6467
X4.68Y-5.3947
X4.68Y-6.1428
X4.68Y-6.8908
X5.428Y-3.7491
X5.428Y-4.4971
X5.428Y-5.2451
X5.428Y-5.9931
X5.428Y-6.7412
X6.1761Y-3.5994
X6.1761Y-4.3475
X6.1761Y-5.0955
X6.1761Y-5.8435
X6.1761Y-6.5916
X6.9239Y-3.7479
X6.9239Y-4.4959
X6.9239Y-5.2439
X6.9239Y-5.992
X7.02Y-6.88
X7.6739Y-3.8379
X7.6739Y-4.5859
X7.6739Y-5.3339
X7.6739Y-6.082
X7.7393Y-7.385
X8.2405Y-8.1007
X8.27Y-6.85
X8.8586Y-7.5154
T8
X3.1831Y-4.048
X3.1831Y-4.796
X3.1831Y-5.5441
X3.1831Y-6.2921
X3.1831Y-7.0401
X3.9311Y-4.7964
X3.9311Y-5.5444
X3.9311Y-6.2925
X3.9311Y-7.0405
X3.9331Y-4.0491
X4.6791Y-3.8988
X4.6791Y-4.6468
X4.6791Y-5.3948
X4.6791Y-6.1429
X4.6791Y-6.8909
X5.4271Y-3.7492
X5.4271Y-4.4972
X5.4271Y-5.2452
X5.4271Y-5.9933
X5.4271Y-6.7413
X6.1752Y-3.5996
X6.1752Y-4.3476
X6.1752Y-5.0956
X6.1752Y-5.8437
X6.1752Y-6.5917
X6.9231Y-3.748
X6.9231Y-4.496
X6.9231Y-5.2441
X6.9231Y-5.9921
X7.0192Y-6.8797
X7.6731Y-3.838
X7.6731Y-4.586
X7.6731Y-5.3341
X7.6731Y-6.0821
X7.7386Y-7.3845
X8.24Y-8.1
X8.2693Y-6.8495
X8.858Y-7.5147
T0
M30
