M48
; DRILL file {KiCad (6.0.1)} date Mon Jul  4 12:18:31 2022
; FORMAT={-:-/ absolute / inch / decimal}
; #@! TF.CreationDate,2022-07-04T12:18:31-07:00
; #@! TF.GenerationSoftware,Kicad,Pcbnew,(6.0.1)
; #@! TF.FileFunction,Plated,1,4,PTH
FMAT,2
INCH
; #@! TA.AperFunction,Plated,PTH,ComponentDrill
T1C0.0079
; #@! TA.AperFunction,Plated,PTH,ViaDrill
T2C0.0157
; #@! TA.AperFunction,Plated,PTH,ComponentDrill
T3C0.0276
; #@! TA.AperFunction,Plated,PTH,ComponentDrill
T4C0.0315
; #@! TA.AperFunction,Plated,PTH,ComponentDrill
T5C0.0354
; #@! TA.AperFunction,Plated,PTH,ComponentDrill
T6C0.0394
; #@! TA.AperFunction,Plated,PTH,ComponentDrill
T7C0.0433
; #@! TA.AperFunction,Plated,PTH,ComponentDrill
T8C0.0472
; #@! TA.AperFunction,Plated,PTH,ComponentDrill
T9C0.0591
; #@! TA.AperFunction,Plated,PTH,ComponentDrill
T10C0.0630
; #@! TA.AperFunction,Plated,PTH,ComponentDrill
T11C0.0826
%
G90
G05
T1
X8.525Y-4.625
X8.525Y-4.6683
X8.525Y-4.7117
X8.525Y-4.755
X8.525Y-5.505
X8.525Y-5.5483
X8.525Y-5.5917
X8.525Y-5.635
X8.5683Y-4.625
X8.5683Y-4.6683
X8.5683Y-4.7117
X8.5683Y-4.755
X8.5683Y-5.505
X8.5683Y-5.5483
X8.5683Y-5.5917
X8.5683Y-5.635
X8.6117Y-4.625
X8.6117Y-4.6683
X8.6117Y-4.7117
X8.6117Y-4.755
X8.6117Y-5.505
X8.6117Y-5.5483
X8.6117Y-5.5917
X8.6117Y-5.635
X8.655Y-4.625
X8.655Y-4.6683
X8.655Y-4.7117
X8.655Y-4.755
X8.655Y-5.505
X8.655Y-5.5483
X8.655Y-5.5917
X8.655Y-5.635
T2
X2.72Y-5.835
X2.725Y-6.875
X2.7315Y-4.805
X2.735Y-3.765
X3.075Y-7.465
X3.345Y-7.255
X3.35Y-4.275
X3.35Y-6.52
X3.355Y-5.02
X3.375Y-5.76
X3.505Y-3.22
X3.835Y-3.665
X3.9Y-7.48
X4.085Y-4.26
X4.085Y-6.495
X4.095Y-5.02
X4.105Y-5.755
X4.12Y-7.23
X4.6823Y-3.5373
X4.685Y-7.34
X4.745Y-2.75
X4.83Y-6.37
X4.835Y-5.61
X4.84Y-4.12
X4.84Y-4.87
X4.875Y-7.08
X5.4952Y-7.0835
X5.585Y-6.22
X5.585Y-6.95
X5.59Y-4.725
X5.59Y-5.475
X5.61Y-3.975
X5.6525Y-3.395
X6.265Y-7.105
X6.335Y-4.57
X6.34Y-6.07
X6.35Y-3.825
X6.35Y-6.805
X6.36Y-5.32
X6.44Y-2.6098
X6.72Y-2.85
X6.755Y-2.93
X6.98Y-2.755
X7.0068Y-7.3721
X7.0798Y-4.6848
X7.085Y-6.22
X7.09Y-7.145
X7.095Y-3.98
X7.105Y-5.47
X7.5348Y-7.3802
X7.6198Y-7.8702
X7.695Y-7.65
X7.82Y-5.545
X7.83Y-4.065
X7.83Y-6.215
X7.835Y-4.81
X7.89Y-2.6385
X7.905Y-7.86
X7.955Y-7.05
X7.98Y-2.62
X7.985Y-7.9
X8.017Y-6.2106
X8.06Y-8.04
X8.065Y-6.275
X8.07Y-6.86
X8.1Y-8.33
X8.11Y-8.59
X8.13Y-4.07
X8.13Y-4.1881
X8.13Y-4.3062
X8.13Y-4.4243
X8.13Y-4.5424
X8.13Y-4.6606
X8.13Y-4.7787
X8.13Y-4.8968
X8.13Y-5.0149
X8.13Y-5.133
X8.13Y-5.2511
X8.13Y-5.3692
X8.13Y-5.4873
X8.13Y-5.6054
X8.13Y-5.7235
X8.13Y-5.8417
X8.13Y-5.9598
X8.13Y-6.0779
X8.13Y-6.196
X8.16Y-5.205
X8.16Y-5.555
X8.16Y-5.675
X8.165Y-4.02
X8.165Y-4.375
X8.165Y-4.8462
X8.165Y-5.795
X8.165Y-6.1389
X8.17Y-4.1376
X8.17Y-4.61
X8.17Y-4.73
X8.17Y-4.965
X8.17Y-5.91
X8.175Y-4.26
X8.175Y-4.495
X8.175Y-5.083
X8.18Y-5.32
X8.18Y-6.03
X8.2121Y-5.6724
X8.2288Y-5.542
X8.23Y-4.1291
X8.23Y-4.2472
X8.23Y-4.3653
X8.23Y-4.4834
X8.23Y-4.6015
X8.23Y-4.7196
X8.23Y-4.8377
X8.23Y-4.9558
X8.23Y-5.0739
X8.23Y-5.192
X8.23Y-5.3102
X8.23Y-5.4283
X8.23Y-5.7826
X8.23Y-5.9007
X8.23Y-6.0188
X8.23Y-6.1369
X8.23Y-6.255
X8.2535Y-5.5769
X8.26Y-4.905
X8.26Y-5.73
X8.26Y-6.075
X8.265Y-4.5515
X8.265Y-5.025
X8.265Y-5.8722
X8.265Y-5.97
X8.265Y-6.205
X8.2655Y-4.0745
X8.2677Y-4.1973
X8.2699Y-4.3151
X8.27Y-4.44
X8.27Y-4.79
X8.27Y-5.145
X8.27Y-5.26
X8.2702Y-4.6698
X8.31Y-5.4588
X8.425Y-7.515
X8.4323Y-7.3523
X8.47Y-5.5
X8.4908Y-5.35
X8.5016Y-5.3102
X8.5301Y-5.35
X8.5797Y-4.8984
X8.6015Y-5.3385
X8.6177Y-5.2638
X8.6499Y-4.4895
X8.66Y-5.87
X8.67Y-5.185
X8.67Y-7.41
X8.675Y-7.47
X8.705Y-6.255
X8.7087Y-4.7503
X8.7102Y-4.9652
X8.7105Y-4.6445
X8.72Y-5.83
X8.75Y-5.8
X8.7503Y-5.2897
X8.765Y-5.76
X8.775Y-5.395
X8.7953Y-5.3347
X8.8Y-4.56
X8.8Y-5.27
X8.8Y-5.4288
X8.81Y-5.53
X8.8193Y-4.7109
X8.82Y-5.71
X8.825Y-4.65
X8.8286Y-3.5614
X8.8302Y-4.5852
X8.8425Y-3.6875
X8.8468Y-4.6827
X8.8573Y-5.6974
X8.865Y-4.81
X8.885Y-4.165
X8.8898Y-4.5196
X8.89Y-4.4409
X8.8903Y-4.4802
X8.895Y-5.615
X8.895Y-8.305
X8.9342Y-5.618
X8.935Y-2.875
X8.94Y-3.9
X8.9823Y-4.7023
X8.9871Y-4.6633
X8.99Y-5.865
X9.0Y-3.205
X9.005Y-3.255
X9.005Y-5.45
X9.01Y-5.7
X9.0189Y-4.5508
X9.03Y-4.63
X9.0561Y-5.88
X9.065Y-4.3185
X9.07Y-2.9
X9.1085Y-3.17
X9.115Y-3.44
X9.115Y-3.535
X9.145Y-4.89
X9.215Y-5.325
X9.275Y-3.31
X9.275Y-5.09
X9.3052Y-4.7648
X9.3441Y-4.7706
X9.365Y-3.83
X9.44Y-3.83
X9.45Y-7.455
X9.455Y-3.535
X9.455Y-3.735
X9.5035Y-3.905
X9.505Y-7.27
X9.515Y-3.17
X9.54Y-4.26
X9.63Y-3.335
X9.65Y-6.39
X9.6736Y-3.8976
X9.6898Y-4.4976
X9.6898Y-5.3426
X9.6988Y-3.62
T3
X6.44Y-2.39
X6.62Y-2.39
X7.08Y-2.43
X7.19Y-2.44
X7.33Y-2.46
X7.449Y-2.48
X7.57Y-2.5
X7.689Y-2.52
X7.81Y-2.54
X7.93Y-2.56
X8.05Y-2.58
T4
X8.5839Y-4.165
X9.0761Y-4.165
T5
X7.5523Y-2.7944
X7.6523Y-2.7944
X7.7523Y-2.7944
X7.8523Y-2.7944
X7.9464Y-2.7462
X7.9464Y-2.819
X8.6669Y-3.9241
X8.6915Y-3.53
X8.6915Y-3.63
X8.6915Y-3.73
X8.6915Y-3.83
X8.7397Y-3.9241
T6
X8.516Y-4.043
X8.516Y-6.143
X8.616Y-4.043
X8.616Y-6.143
X8.716Y-4.043
X8.716Y-6.143
X8.816Y-4.043
X8.816Y-6.143
X8.916Y-4.043
X8.916Y-6.143
X9.016Y-4.043
X9.016Y-6.143
X9.116Y-4.043
X9.116Y-6.143
X9.1294Y-2.9927
X9.216Y-4.043
X9.216Y-6.143
X9.22Y-3.035
X9.316Y-4.043
X9.316Y-6.143
X9.416Y-4.043
X9.416Y-6.143
T7
X3.2648Y-3.2016
X3.2648Y-3.3
X3.2648Y-3.3984
X3.8355Y-3.1426
X3.8355Y-3.2213
X3.8355Y-3.3
X3.8355Y-3.3787
X3.8355Y-3.4574
X4.1798Y-2.9416
X4.1798Y-3.04
X4.1798Y-3.1384
X4.7505Y-2.8826
X4.7505Y-2.9613
X4.7505Y-3.04
X4.7505Y-3.1187
X4.7505Y-3.1974
X5.0798Y-2.7116
X5.0798Y-2.81
X5.0798Y-2.9084
X5.6505Y-2.6526
X5.6505Y-2.7313
X5.6505Y-2.81
X5.6505Y-2.8887
X5.6505Y-2.9674
X8.9078Y-6.7365
X8.9584Y-6.7968
X9.009Y-6.8571
X9.0595Y-6.9174
X9.1101Y-6.9777
X9.3829Y-6.4149
X9.4461Y-6.4902
X9.5094Y-6.5656
T8
X3.1831Y-3.8157
X3.1831Y-4.5637
X3.1831Y-5.3118
X3.1831Y-6.0598
X3.1831Y-6.8078
X3.3799Y-3.8984
X3.3799Y-4.6464
X3.3799Y-5.3944
X3.3799Y-6.1425
X3.3799Y-6.8905
X3.9311Y-4.5641
X3.9311Y-5.3122
X3.9311Y-6.0602
X3.9311Y-6.8082
X3.9331Y-3.8168
X4.1279Y-4.6468
X4.1279Y-5.3948
X4.1279Y-6.1429
X4.1279Y-6.8909
X4.1299Y-3.8994
X4.6791Y-3.6665
X4.6791Y-4.4145
X4.6791Y-5.1626
X4.6791Y-5.9106
X4.6791Y-6.6586
X4.876Y-3.7492
X4.876Y-4.4972
X4.876Y-5.2452
X4.876Y-5.9933
X4.876Y-6.7413
X5.4271Y-3.5169
X5.4271Y-4.2649
X5.4271Y-5.013
X5.4271Y-5.761
X5.4271Y-6.509
X5.624Y-3.5996
X5.624Y-4.3476
X5.624Y-5.0956
X5.624Y-5.8437
X5.624Y-6.5917
X6.1752Y-3.3673
X6.1752Y-4.1153
X6.1752Y-4.8633
X6.1752Y-5.6114
X6.1752Y-6.3594
X6.372Y-3.45
X6.372Y-4.198
X6.372Y-4.946
X6.372Y-5.6941
X6.372Y-6.4421
X6.9231Y-3.5157
X6.9231Y-4.2637
X6.9231Y-5.0118
X6.9231Y-5.7598
X7.1173Y-6.6692
X7.1199Y-3.5984
X7.1199Y-4.3464
X7.1199Y-5.0944
X7.1199Y-5.8425
X7.2608Y-6.8273
X7.6731Y-3.6057
X7.6731Y-4.3537
X7.6731Y-5.1018
X7.6731Y-5.8498
X7.8699Y-3.6884
X7.8699Y-4.4364
X7.8699Y-5.1844
X7.8699Y-5.9325
X7.9028Y-7.2202
X7.9836Y-7.4179
X8.4335Y-6.6852
X8.4505Y-8.0018
X8.4588Y-8.2152
X8.5143Y-6.8829
X9.0592Y-7.3985
X9.086Y-7.6103
T9
X3.0339Y-3.9479
X3.0339Y-4.6959
X3.0339Y-5.4439
X3.0339Y-6.192
X3.0339Y-6.94
X3.2839Y-3.8479
X3.2839Y-4.5959
X3.2839Y-5.3439
X3.2839Y-6.092
X3.2839Y-6.84
X3.782Y-4.6963
X3.782Y-5.4443
X3.782Y-6.1924
X3.782Y-6.9404
X3.7839Y-3.9489
X4.032Y-4.5963
X4.032Y-5.3443
X4.032Y-6.0924
X4.032Y-6.8404
X4.0339Y-3.8489
X4.53Y-3.7987
X4.53Y-4.5467
X4.53Y-5.2947
X4.53Y-6.0428
X4.53Y-6.7908
X4.78Y-3.6987
X4.78Y-4.4467
X4.78Y-5.1947
X4.78Y-5.9428
X4.78Y-6.6908
X5.278Y-3.6491
X5.278Y-4.3971
X5.278Y-5.1451
X5.278Y-5.8931
X5.278Y-6.6412
X5.528Y-3.5491
X5.528Y-4.2971
X5.528Y-5.0451
X5.528Y-5.7931
X5.528Y-6.5412
X6.0261Y-3.4994
X6.0261Y-4.2475
X6.0261Y-4.9955
X6.0261Y-5.7435
X6.0261Y-6.4916
X6.2761Y-3.3994
X6.2761Y-4.1475
X6.2761Y-4.8955
X6.2761Y-5.6435
X6.2761Y-6.3916
X6.7739Y-3.6479
X6.7739Y-4.3959
X6.7739Y-5.1439
X6.7739Y-5.892
X6.9263Y-6.726
X7.0239Y-3.5479
X7.0239Y-4.2959
X7.0239Y-5.0439
X7.0239Y-5.792
X7.1952Y-6.741
X7.5239Y-3.7379
X7.5239Y-4.4859
X7.5239Y-5.2339
X7.5239Y-5.982
X7.7039Y-7.2083
X7.7739Y-3.6379
X7.7739Y-4.3859
X7.7739Y-5.1339
X7.7739Y-5.882
X7.9514Y-7.3143
X8.2346Y-6.6732
X8.2677Y-7.9225
X8.464Y-8.1069
X8.4821Y-6.7793
X8.8702Y-7.3355
X9.0818Y-7.502
T10
X2.9862Y-4.2507
X2.9862Y-4.9988
X2.9862Y-5.7468
X2.9862Y-6.4948
X2.9862Y-7.2429
X3.7342Y-4.9992
X3.7342Y-5.7472
X3.7342Y-6.4952
X3.7342Y-7.2433
X3.7362Y-4.2518
X4.4823Y-4.1015
X4.4823Y-4.8496
X4.4823Y-5.5976
X4.4823Y-6.3456
X4.4823Y-7.0937
X5.2303Y-3.9519
X5.2303Y-4.7
X5.2303Y-5.448
X5.2303Y-6.196
X5.2303Y-6.9441
X5.9783Y-3.8023
X5.9783Y-4.5504
X5.9783Y-5.2984
X5.9783Y-6.0464
X5.9783Y-6.7944
X6.7262Y-3.9507
X6.7262Y-4.6988
X6.7262Y-5.4468
X6.7262Y-6.1948
X6.7551Y-6.9803
X7.456Y-7.3887
X7.4762Y-4.0407
X7.4762Y-4.7888
X7.4762Y-5.5368
X7.4762Y-6.2848
X7.973Y-8.0073
X7.9867Y-6.8536
X8.584Y-7.4456
T11
X3.56Y-3.0815
X3.56Y-3.5185
X4.475Y-2.8215
X4.475Y-3.2585
X5.375Y-2.5915
X5.375Y-3.0285
X9.0796Y-6.5126
X9.3604Y-6.8474
T5
G00X8.6144Y-3.282
M15
G01X8.6144Y-3.2978
M16
G05
G00X8.7956Y-2.9631
M15
G01X8.7956Y-2.9789
M16
G05
G00X8.7956Y-3.0812
M15
G01X8.7956Y-3.097
M16
G05
G00X8.7956Y-3.2387
M15
G01X8.7956Y-3.2544
M16
G05
T0
M30
